{
  "source": "C:\\Users\\Peter\\Desktop\\stuff\\MIUN\\quantitative_research\\video_compression\\videos\\BVI-HD\\BVI-HD_CDVL_videos\\ORIG\\Fountain_1920x1080_50fps.mp4",
  "output": "C:\\Users\\Peter\\Desktop\\stuff\\MIUN\\quantitative_research\\video_compression\\compressed_videos\\BVI-HD\\av1\\4\\Fountain_1920x1080_50fps_av1.mkv",
  "codec": "av1",
  "ok": "Input #0, mov,mp4,m4a,3gp,3g2,mj2, from 'C:\\Users\\Peter\\Desktop\\stuff\\MIUN\\quantitative_research\\video_compression\\videos\\BVI-HD\\BVI-HD_CDVL_videos\\ORIG\\Fountain_1920x1080_50fps.mp4':\n  Metadata:\n    major_brand     : isom\n    minor_version   : 512\n    compatible_brands: isomiso2avc1mp41\n    encoder         : Lavf54.28.101\n  Duration: 00:00:05.00, start: 0.000000, bitrate: 603457 kb/s\n  Stream #0:0[0x1](und): Video: h264 (High 4:4:4 Predictive) (avc1 / 0x31637661), yuv420p(progressive), 1920x1080, 603453 kb/s, 50 fps, 50 tbr, 50 tbn (default)\n    Metadata:\n      handler_name    : VideoHandler\n      vendor_id       : [0][0][0][0]\n[out#0/matroska @ 0000022a892ee9c0] Codec AVOption b:a (set bitrate (in bits/s)) has not been used for any stream. The most likely reason is either wrong type (e.g. a video option with no video streams) or that it is a private option of some decoder which was not actually used for any stream.\nStream mapping:\n  Stream #0:0 -> #0:0 (h264 (native) -> av1 (libsvtav1))\nPress [q] to stop, [?] for help\nSvt[info]: -------------------------------------------\nSvt[info]: SVT [version]:\tSVT-AV1 Encoder Lib v3.1.0-19-g6ecfe8ec\nSvt[info]: SVT [build]  :\tGCC 15.2.0\t 64 bit\nSvt[info]: LIB Build date: Aug 17 2025 11:37:13\nSvt[info]: -------------------------------------------\nSvt[info]: Level of Parallelism: 5\nSvt[info]: Number of PPCS 93\nSvt[info]: [asm level on system : up to avx2]\nSvt[info]: [asm level selected : up to avx2]\nSvt[info]: -------------------------------------------\nSvt[info]: SVT [config]: main profile\ttier (auto)\tlevel (auto)\nSvt[info]: SVT [config]: width / height / fps numerator / fps denominator \t\t: 1920 / 1080 / 50 / 1\nSvt[info]: SVT [config]: bit-depth / color format \t\t\t\t\t: 8 / YUV420\nSvt[info]: SVT [config]: preset / tune / pred struct \t\t\t\t\t: 4 / PSNR / random access\nSvt[info]: SVT [config]: gop size / mini-gop size / key-frame type \t\t\t: 321 / 16 / key frame\nSvt[info]: SVT [config]: BRC mode / target bitrate (kbps)\t\t\t\t: VBR / 4000 \nSvt[info]: SVT [config]: AQ mode / Variance Boost \t\t\t\t\t: 2 / 0\nSvt[info]: SVT [config]: sharpness / luminance-based QP bias \t\t\t\t: 0 / 0\nSvt[info]: SVT [config]: QP scale compress strength \t\t\t\t\t: 0\nSvt[info]: -------------------------------------------\nOutput #0, matroska, to 'C:\\Users\\Peter\\Desktop\\stuff\\MIUN\\quantitative_research\\video_compression\\compressed_videos\\BVI-HD\\av1\\4\\Fountain_1920x1080_50fps_av1.mkv':\n  Metadata:\n    major_brand     : isom\n    minor_version   : 512\n    compatible_brands: isomiso2avc1mp41\n    encoder         : Lavf62.3.100\n  Stream #0:0(und): Video: av1 (AV01 / 0x31305641), yuv420p(tv, progressive), 1920x1080, q=2-31, 4000 kb/s, 50 fps, 1k tbn (default)\n    Metadata:\n      encoder         : Lavc62.11.100 libsvtav1\n      handler_name    : VideoHandler\n      vendor_id       : [0][0][0][0]\n    Side data:\n      cpb: bitrate max/min/avg: 0/0/4000000 buffer size: 4000000 vbv_delay: N/A\nframe=    0 fps=0.0 q=0.0 size=       0KiB time=N/A bitrate=N/A speed=N/A elapsed=0:00:01.03    \nframe=    0 fps=0.0 q=0.0 size=       0KiB time=N/A bitrate=N/A speed=N/A elapsed=0:00:01.56    \nframe=    0 fps=0.0 q=0.0 size=       0KiB time=N/A bitrate=N/A speed=N/A elapsed=0:00:02.12    \nframe=    0 fps=0.0 q=0.0 size=       0KiB time=N/A bitrate=N/A speed=N/A elapsed=0:00:02.68    \nframe=    1 fps=0.3 q=27.0 size=       1KiB time=00:00:00.00 bitrate=N/A speed=   0x elapsed=0:00:03.23    \nframe=    1 fps=0.3 q=27.0 size=       1KiB time=00:00:00.00 bitrate=N/A speed=   0x elapsed=0:00:03.75    \nframe=    1 fps=0.2 q=27.0 size=       1KiB time=00:00:00.00 bitrate=N/A speed=   0x elapsed=0:00:04.27    \nframe=    3 fps=0.6 q=42.0 size=       1KiB time=00:00:00.04 bitrate= 142.6kbits/s speed=0.00837x elapsed=0:00:04.78    \nframe=    6 fps=1.1 q=45.0 size=       1KiB time=00:00:00.10 bitrate=  57.0kbits/s speed=0.0189x elapsed=0:00:05.30    \nframe=    7 fps=1.2 q=40.0 size=       1KiB time=00:00:00.12 bitrate=  47.5kbits/s speed=0.0206x elapsed=0:00:05.82    \nframe=   11 fps=1.7 q=41.0 size=       1KiB time=00:00:00.18 bitrate=  31.7kbits/s speed=0.0284x elapsed=0:00:06.34    \nframe=   14 fps=2.0 q=41.0 size=       1KiB time=00:00:00.26 bitrate=  21.9kbits/s speed=0.0376x elapsed=0:00:06.90    \nframe=   18 fps=2.4 q=43.0 size=       1KiB time=00:00:00.34 bitrate=  16.8kbits/s speed=0.0456x elapsed=0:00:07.46    \nframe=   20 fps=2.5 q=42.0 size=       1KiB time=00:00:00.38 bitrate=  15.0kbits/s speed=0.0476x elapsed=0:00:07.98    \nframe=   23 fps=2.7 q=41.0 size=       1KiB time=00:00:00.44 bitrate=  13.0kbits/s speed=0.0516x elapsed=0:00:08.52    \nframe=   26 fps=2.9 q=41.0 size=       1KiB time=00:00:00.50 bitrate=  11.4kbits/s speed=0.055x elapsed=0:00:09.09    \nframe=   28 fps=2.9 q=41.0 size=       1KiB time=00:00:00.54 bitrate=  10.6kbits/s speed=0.0561x elapsed=0:00:09.62    \nframe=   33 fps=3.2 q=30.0 size=       1KiB time=00:00:00.64 bitrate=   8.9kbits/s speed=0.0629x elapsed=0:00:10.16    \nframe=   35 fps=3.3 q=41.0 size=       1KiB time=00:00:00.68 bitrate=   8.4kbits/s speed=0.0636x elapsed=0:00:10.68    \nframe=   38 fps=3.4 q=41.0 size=       1KiB time=00:00:00.74 bitrate=   7.7kbits/s speed=0.066x elapsed=0:00:11.21    \nframe=   39 fps=3.3 q=41.0 size=       1KiB time=00:00:00.76 bitrate=   7.5kbits/s speed=0.0649x elapsed=0:00:11.71    \nframe=   43 fps=3.5 q=41.0 size=       1KiB time=00:00:00.84 bitrate=   6.8kbits/s speed=0.0685x elapsed=0:00:12.25    \nframe=   46 fps=3.6 q=43.0 size=       1KiB time=00:00:00.90 bitrate=   6.3kbits/s speed=0.0703x elapsed=0:00:12.80    \nframe=   50 fps=3.8 q=44.0 size=       1KiB time=00:00:00.98 bitrate=   5.8kbits/s speed=0.0735x elapsed=0:00:13.32    \nframe=   53 fps=3.8 q=40.0 size=       1KiB time=00:00:01.04 bitrate=   5.5kbits/s speed=0.0751x elapsed=0:00:13.84    \nframe=   55 fps=3.8 q=43.0 size=       1KiB time=00:00:01.08 bitrate=   5.3kbits/s speed=0.0751x elapsed=0:00:14.39    \nframe=   58 fps=3.9 q=44.0 size=       1KiB time=00:00:01.14 bitrate=   5.0kbits/s speed=0.0763x elapsed=0:00:14.94    \nframe=   62 fps=4.0 q=45.0 size=       1KiB time=00:00:01.22 bitrate=   4.7kbits/s speed=0.0789x elapsed=0:00:15.46    \nframe=   66 fps=4.1 q=45.0 size=       1KiB time=00:00:01.30 bitrate=   4.4kbits/s speed=0.0812x elapsed=0:00:16.01    \nframe=   69 fps=4.2 q=42.0 size=       1KiB time=00:00:01.36 bitrate=   4.2kbits/s speed=0.0823x elapsed=0:00:16.53    \nframe=   71 fps=4.2 q=44.0 size=       1KiB time=00:00:01.40 bitrate=   4.1kbits/s speed=0.0821x elapsed=0:00:17.05    \nframe=   75 fps=4.3 q=43.0 size=       1KiB time=00:00:01.46 bitrate=   3.9kbits/s speed=0.083x elapsed=0:00:17.58    \nframe=   79 fps=4.4 q=43.0 size=       1KiB time=00:00:01.54 bitrate=   3.7kbits/s speed=0.0848x elapsed=0:00:18.15    \nframe=   83 fps=4.4 q=45.0 size=       1KiB time=00:00:01.64 bitrate=   3.5kbits/s speed=0.0878x elapsed=0:00:18.67    \nframe=   86 fps=4.5 q=46.0 size=       1KiB time=00:00:01.70 bitrate=   3.4kbits/s speed=0.0885x elapsed=0:00:19.20    \nframe=   88 fps=4.5 q=46.0 size=       1KiB time=00:00:01.74 bitrate=   3.3kbits/s speed=0.0882x elapsed=0:00:19.72    \nframe=   91 fps=4.5 q=43.0 size=       1KiB time=00:00:01.80 bitrate=   3.2kbits/s speed=0.0889x elapsed=0:00:20.24    \nframe=   96 fps=4.6 q=45.0 size=       1KiB time=00:00:01.90 bitrate=   3.0kbits/s speed=0.0915x elapsed=0:00:20.76    \nframe=   99 fps=4.7 q=45.0 size=       1KiB time=00:00:01.96 bitrate=   2.9kbits/s speed=0.0921x elapsed=0:00:21.28    \nframe=  102 fps=4.7 q=46.0 size=       1KiB time=00:00:02.02 bitrate=   2.8kbits/s speed=0.0927x elapsed=0:00:21.79    \nframe=  104 fps=4.7 q=46.0 size=       1KiB time=00:00:02.06 bitrate=   2.8kbits/s speed=0.0923x elapsed=0:00:22.32    \nframe=  109 fps=4.8 q=40.0 size=       1KiB time=00:00:02.14 bitrate=   2.7kbits/s speed=0.0937x elapsed=0:00:22.84    \nframe=  114 fps=4.9 q=45.0 size=       1KiB time=00:00:02.26 bitrate=   2.5kbits/s speed=0.0966x elapsed=0:00:23.39    \nframe=  118 fps=4.9 q=45.0 size=       1KiB time=00:00:02.34 bitrate=   2.4kbits/s speed=0.0978x elapsed=0:00:23.93    \nframe=  121 fps=5.0 q=39.0 size=       1KiB time=00:00:02.40 bitrate=   2.4kbits/s speed=0.0982x elapsed=0:00:24.44    \nframe=  124 fps=5.0 q=45.0 size=       1KiB time=00:00:02.46 bitrate=   2.3kbits/s speed=0.0984x elapsed=0:00:24.99    \nframe=  130 fps=5.1 q=45.0 size=       1KiB time=00:00:02.58 bitrate=   2.2kbits/s speed=0.101x elapsed=0:00:25.51    \nframe=  134 fps=5.2 q=45.0 size=       1KiB time=00:00:02.66 bitrate=   2.1kbits/s speed=0.102x elapsed=0:00:26.01    \nframe=  135 fps=5.1 q=44.0 size=       1KiB time=00:00:02.68 bitrate=   2.1kbits/s speed=0.101x elapsed=0:00:26.54    \nframe=  139 fps=5.1 q=42.0 size=       1KiB time=00:00:02.76 bitrate=   2.1kbits/s speed=0.102x elapsed=0:00:27.06    \nframe=  145 fps=5.3 q=32.0 size=       1KiB time=00:00:02.88 bitrate=   2.0kbits/s speed=0.104x elapsed=0:00:27.58    \nframe=  148 fps=5.3 q=45.0 size=       1KiB time=00:00:02.94 bitrate=   1.9kbits/s speed=0.104x elapsed=0:00:28.13    \nframe=  151 fps=5.3 q=40.0 size=       1KiB time=00:00:03.00 bitrate=   1.9kbits/s speed=0.105x elapsed=0:00:28.65    \nframe=  157 fps=5.4 q=39.0 size=       1KiB time=00:00:03.12 bitrate=   1.8kbits/s speed=0.107x elapsed=0:00:29.19    \nframe=  161 fps=5.4 q=32.0 size=       1KiB time=00:00:03.20 bitrate=   1.8kbits/s speed=0.108x elapsed=0:00:29.76    \nframe=  165 fps=5.4 q=42.0 size=       1KiB time=00:00:03.28 bitrate=   1.7kbits/s speed=0.108x elapsed=0:00:30.28    \nframe=  169 fps=5.5 q=38.0 size=       1KiB time=00:00:03.36 bitrate=   1.7kbits/s speed=0.109x elapsed=0:00:30.80    \nframe=  173 fps=5.5 q=40.0 size=       1KiB time=00:00:03.44 bitrate=   1.7kbits/s speed=0.11x elapsed=0:00:31.35    \nframe=  179 fps=5.6 q=45.0 size=       1KiB time=00:00:03.52 bitrate=   1.6kbits/s speed=0.11x elapsed=0:00:31.89    \nframe=  185 fps=5.7 q=39.0 size=       1KiB time=00:00:03.68 bitrate=   1.6kbits/s speed=0.114x elapsed=0:00:32.41    \nframe=  185 fps=5.6 q=39.0 size=       1KiB time=00:00:03.68 bitrate=   1.6kbits/s speed=0.112x elapsed=0:00:32.95    \nframe=  191 fps=5.7 q=43.0 size=       1KiB time=00:00:03.80 bitrate=   1.5kbits/s speed=0.114x elapsed=0:00:33.45    \nframe=  197 fps=5.8 q=43.0 size=       1KiB time=00:00:03.92 bitrate=   1.5kbits/s speed=0.115x elapsed=0:00:34.01    \nframe=  201 fps=5.8 q=39.0 size=       1KiB time=00:00:04.00 bitrate=   1.4kbits/s speed=0.116x elapsed=0:00:34.54    \nframe=  203 fps=5.8 q=43.0 size=       1KiB time=00:00:04.04 bitrate=   1.4kbits/s speed=0.115x elapsed=0:00:35.06    \nframe=  207 fps=5.8 q=43.0 size=       1KiB time=00:00:04.12 bitrate=   1.4kbits/s speed=0.116x elapsed=0:00:35.64    \nframe=  209 fps=5.8 q=32.0 size=       1KiB time=00:00:04.16 bitrate=   1.4kbits/s speed=0.115x elapsed=0:00:36.23    \nframe=  213 fps=5.8 q=43.0 size=       1KiB time=00:00:04.24 bitrate=   1.3kbits/s speed=0.115x elapsed=0:00:36.80    \nframe=  217 fps=5.8 q=39.0 size=       1KiB time=00:00:04.32 bitrate=   1.3kbits/s speed=0.116x elapsed=0:00:37.37    \nframe=  217 fps=5.7 q=39.0 size=       1KiB time=00:00:04.32 bitrate=   1.3kbits/s speed=0.114x elapsed=0:00:37.97    \nframe=  221 fps=5.7 q=42.0 size=       1KiB time=00:00:04.40 bitrate=   1.3kbits/s speed=0.114x elapsed=0:00:38.58    \nframe=  223 fps=5.7 q=44.0 size=       1KiB time=00:00:04.40 bitrate=   1.3kbits/s speed=0.112x elapsed=0:00:39.15    \nframe=  225 fps=5.7 q=32.0 size=       1KiB time=00:00:04.48 bitrate=   1.3kbits/s speed=0.113x elapsed=0:00:39.74    \nframe=  229 fps=5.7 q=46.0 size=       1KiB time=00:00:04.56 bitrate=   1.3kbits/s speed=0.113x elapsed=0:00:40.37    \nframe=  233 fps=5.7 q=42.0 size=       1KiB time=00:00:04.64 bitrate=   1.2kbits/s speed=0.113x elapsed=0:00:40.98    \nframe=  233 fps=5.6 q=42.0 size=       1KiB time=00:00:04.64 bitrate=   1.2kbits/s speed=0.112x elapsed=0:00:41.55    \nframe=  237 fps=5.6 q=46.0 size=       1KiB time=00:00:04.72 bitrate=   1.2kbits/s speed=0.112x elapsed=0:00:42.18    \nframe=  239 fps=5.6 q=46.0 size=       1KiB time=00:00:04.76 bitrate=   1.2kbits/s speed=0.111x elapsed=0:00:42.77    \nframe=  250 fps=5.8 q=46.0 size=       1KiB time=00:00:04.92 bitrate=   1.2kbits/s speed=0.114x elapsed=0:00:43.33    \n[out#0/matroska @ 0000022a892ee9c0] video:2472KiB audio:0KiB subtitle:0KiB other streams:0KiB global headers:0KiB muxing overhead: 0.076290%\nframe=  250 fps=5.8 q=46.0 Lsize=    2474KiB time=00:00:04.98 bitrate=4069.2kbits/s speed=0.115x elapsed=0:00:43.36    \n",
  "seconds": 43.855666637420654,
  "probe_out": {}
}